<?xml version="1.0" encoding="UTF-8"?>
<svg id="katman_1" data-name="katman 1" xmlns="http://www.w3.org/2000/svg" viewBox="0 0 293.32 205.93">
  <defs>
    <style>
      .cls-1 {
        fill: #4d7cbf;
      }

      .cls-1, .cls-2, .cls-3, .cls-4 {
        fill-rule: evenodd;
        stroke-width: 0px;
      }

      .cls-2 {
        fill: #fcba29;
      }

      .cls-3 {
        fill: #f04f41;
      }

      .cls-4 {
        fill: #2eb161;
      }
    </style>
  </defs>
  <path class="cls-1" d="m62.64,4.52l-1.84.03c-1.11,0-2.23.04-2.5.07-.27.02-1.22.11-2.1.2-7.01.66-14.96,2.97-21.57,6.28-6.59,3.31-13.12,8.21-17.94,13.47-6.22,6.81-10.78,14.51-13.57,22.99C-.07,57.22-.83,67.71.92,77.97c1.16,6.83,3.84,14.24,7.32,20.27,3,5.2,6.28,9.41,10.78,13.79,9.67,9.46,22.05,15.49,35.41,17.24,2.27.29,5.68.56,7.36.56h1.01v-25.33l-2.07.07c-7.82.25-15.69-2.55-22.46-8.02-1.54-1.24-4.56-4.29-5.86-5.94-6.21-7.84-9.24-17.33-8.44-26.52,1-11.37,6.92-21.24,16.68-27.73,2.03-1.36,5.83-3.28,8.2-4.15,3.99-1.47,9.05-2.47,12.59-2.47h1.16c-1.54-3.89-2.39-8.12-2.39-12.56s.87-8.75,2.44-12.67Z"/>
  <path class="cls-2" d="m81.44,48.83v81h25.93V48.84c-4,1.64-8.38,2.55-12.97,2.55s-8.97-.91-12.97-2.55Z"/>
  <path class="cls-4" d="m182.92,30.53V4.51h-56.76c1.57,3.92,2.44,8.19,2.44,12.67,0,4.7-.95,9.18-2.67,13.26l16.05.03,16.38.05-16.38,36.84-16.39,36.84v25.78h57.33v-25.93h-16.33c-8.98,0-16.33-.03-16.33-.06,0-.03,7.35-16.57,16.33-36.75l16.33-36.7Z"/>
  <path class="cls-3" d="m205.52,98.25l.04,51.7.31,1.08c1.22,4.26,3.77,7.39,7.5,9.15,1.93.91,3.42,1.23,5.65,1.23s3.77-.33,5.76-1.3c3.64-1.77,6.21-4.91,7.32-8.94l.38-1.36.04-38.1.03-38.09h22.57v49.8l1.85-.1c10.86-.55,21.05-5.77,27.95-14.32,2.42-3.01,5.02-7.73,6.29-11.41,3.73-10.85,2.48-22.72-3.42-32.43-1.65-2.73-3.24-4.73-5.75-7.25-6.17-6.17-13.16-9.65-22.17-11.02-1.46-.22-3.81-.24-27.99-.28l-26.38-.06.03,51.7Z"/>
  <path class="cls-1" d="m156.01,144.67c0,1.95.21,4.58.58,7.24,3.66,26.77,24.4,48.37,51.01,53.11,3.46.62,5.62.81,9.77.88,4.19.08,6.62-.04,10.12-.53,17.73-2.47,33.75-12.69,43.65-27.83,6.27-9.59,9.7-20.41,10.13-31.99l.1-2.41h-25.46l.1.56c.04.3.08,1.39.1,2.41.01,7.67-2.93,15.46-8.26,21.84-1.63,1.95-4.64,4.81-6.66,6.34-5.06,3.8-10.71,6.28-16.78,7.36-1.82.33-2.41.36-5.61.38-3.77.01-4.92-.09-7.92-.72-3.83-.79-8.79-2.86-12.12-5.04-8.55-5.62-14.65-14.81-16.75-25.2-.45-2.2-.77-4.99-.77-6.62v-1.3h-25.23v1.53Z"/>
  <path class="cls-2" d="m94.4,0c-9.55,0-17.3,7.75-17.3,17.3s7.75,17.3,17.3,17.3,17.3-7.75,17.3-17.3S103.96,0,94.4,0Z"/>
</svg>